<svg width="125" height="24" viewBox="0 0 125 24" fill="none" xmlns="http://www.w3.org/2000/svg">
<path fill-rule="evenodd" clip-rule="evenodd" d="M79.2463 17.4389C73.6992 13.3403 72.8334 13.6675 61.8774 24C72.1684 12.9999 72.4943 12.1339 68.4122 6.56108C73.9593 10.6597 74.8251 10.3325 85.7811 0C75.4901 11.0001 75.1642 11.8661 79.2463 17.4389ZM120.782 17.3762C120.17 17.3762 119.699 17.2076 119.37 16.8704C119.041 16.5333 118.876 16.0706 118.876 15.4855V8.14437H115.657V6.62723H118.876V2.80296H120.605V6.62723H124.107V8.14437H120.605V15.2244C120.605 15.664 120.815 15.8854 121.24 15.8854H123.627V17.3795H120.779L120.782 17.3762ZM20.5194 4.04579V16.2887H22.7744V4.04579H20.5194ZM43.939 16.0407V13.6906L47.2541 12.428L43.939 11.1654V8.81529L50.398 11.2315H50.4145V13.6477H50.398L43.939 16.0506V16.044V16.0407ZM41.1638 5.49013L37.3648 17.7331H39.6198L43.4188 5.49013H41.1638ZM6.47876 11.1555V8.80544L0.0131685 11.2183H0V13.6312H0.0131685L6.47876 16.0474V13.694L3.16366 12.4248L6.47876 11.1588V11.1555ZM18.1394 11.0728C18.1756 10.1176 17.8398 9.1822 17.1979 8.47486L17.2011 8.47816C16.5559 7.80387 15.6572 7.43698 14.7255 7.47665C13.728 7.43368 12.7602 7.80388 12.0425 8.50461V7.73116H9.78744V16.292H12.0425V12.5008C12.0425 10.5308 12.747 9.5491 14.1593 9.5491C14.6399 9.52926 15.1008 9.73089 15.4136 10.0978C15.7428 10.5076 15.9107 11.0299 15.8843 11.5554V16.2887H18.1394V11.0728ZM32.9077 16.2886H34.7841L37.9478 7.71132H35.538L33.7636 12.8577L31.9332 7.71132H30.1753L28.3449 12.8412L26.5705 7.71132H24.1607L27.3211 16.2886H29.2008L31.0641 11.248L32.9077 16.2886ZM61.1173 17.6836C60.0375 17.6836 59.0894 17.4522 58.2696 16.9894C57.4532 16.5267 56.8178 15.8789 56.3635 15.0426C55.9125 14.2064 55.6854 13.2412 55.6854 12.1405V11.8761C55.6854 10.7622 55.9125 9.78713 56.3635 8.95088C56.8145 8.11464 57.4433 7.46679 58.2466 7.00404C59.0499 6.54129 59.9683 6.30992 61.0053 6.30992C62.0423 6.30992 62.9016 6.52477 63.6752 6.95777C64.4488 7.39077 65.0546 8.00886 65.4924 8.81536C65.9302 9.62187 66.1508 10.5672 66.1508 11.6513V12.4413H57.4137C57.4565 13.5982 57.8285 14.5038 58.5297 15.155C59.2309 15.8061 60.1066 16.1334 61.1568 16.1334C62.0752 16.1334 62.783 15.9218 63.2801 15.4954C63.7772 15.069 64.1558 14.5633 64.4192 13.9783L65.9072 14.7022C65.6866 15.155 65.3838 15.6111 64.9986 16.0639C64.6101 16.5168 64.1097 16.9002 63.4875 17.2076C62.8653 17.515 62.0752 17.6703 61.1107 17.6703L61.1173 17.6836ZM57.44 11.0233H64.4027C64.3435 10.0284 64.0044 9.25167 63.3855 8.69307C62.7633 8.13777 61.9732 7.85681 61.0086 7.85681C60.0441 7.85681 59.2276 8.13447 58.5988 8.69307C57.9701 9.25167 57.5849 10.0284 57.4367 11.0233H57.44ZM82.2686 6.62733V21.7724L82.2719 21.7756H84.0002V15.6872H84.3064C84.4809 16.0112 84.7278 16.3252 85.0504 16.6326C85.373 16.94 85.7911 17.1912 86.3113 17.3895C86.8281 17.5878 87.4602 17.687 88.2042 17.687C89.1391 17.687 89.9918 17.4655 90.7555 17.0259C91.5193 16.5863 92.1316 15.9484 92.5826 15.1121C93.0336 14.2759 93.2608 13.2876 93.2608 12.1439V11.8597C93.2608 10.7028 93.0303 9.7112 92.5695 8.89147C92.1086 8.07175 91.4962 7.43713 90.7292 6.99091C89.9621 6.54469 89.1194 6.31993 88.2009 6.31993C87.0915 6.31993 86.2257 6.53148 85.6068 6.95787C84.9846 7.38425 84.5368 7.86683 84.2603 8.4089H83.9541V6.62733H82.2686ZM90.4461 15.0758C89.7547 15.7897 88.8527 16.1434 87.7433 16.1434C86.6503 16.1434 85.7483 15.7864 85.0405 15.0758C84.3327 14.3651 83.9772 13.3735 83.9772 12.0976V11.8993C83.9772 10.6235 84.3327 9.63187 85.0405 8.92122C85.7483 8.21058 86.6339 7.85361 87.7433 7.85361C88.8527 7.85361 89.7515 8.21058 90.4461 8.92122C91.1407 9.63187 91.4864 10.6235 91.4864 11.8993V12.0976C91.4864 13.3735 91.1374 14.3651 90.4461 15.0758ZM100.767 17.6836C99.6872 17.6836 98.7391 17.4522 97.9193 16.9894C97.1029 16.5267 96.4675 15.8789 96.0132 15.0426C95.5622 14.2064 95.3351 13.2412 95.3351 12.1405V11.8761C95.3351 10.7622 95.5622 9.78713 96.0132 8.95088C96.4642 8.11464 97.093 7.46679 97.8963 7.00404C98.6995 6.54129 99.618 6.30992 100.655 6.30992C101.692 6.30992 102.551 6.52477 103.325 6.95777C104.099 7.39077 104.704 8.00886 105.142 8.81536C105.58 9.62187 105.8 10.5672 105.8 11.6513V12.4413H97.0634C97.1062 13.5982 97.4782 14.5038 98.1794 15.155C98.8806 15.8061 99.7563 16.1334 100.806 16.1334C101.725 16.1334 102.433 15.9218 102.93 15.4954C103.427 15.069 103.806 14.5633 104.069 13.9783L105.557 14.7022C105.336 15.155 105.033 15.6111 104.648 16.0639C104.26 16.5168 103.759 16.9002 103.137 17.2076C102.515 17.515 101.725 17.6703 100.76 17.6703L100.767 17.6836ZM97.0897 11.0233H104.052C103.993 10.0284 103.654 9.25167 103.035 8.69307C102.413 8.13777 101.623 7.85681 100.658 7.85681C99.6937 7.85681 98.8773 8.13447 98.2485 8.69307C97.6198 9.25167 97.2346 10.0284 97.0864 11.0233H97.0897ZM108.348 6.62732V17.3762H110.077V10.8251C110.077 9.91611 110.314 9.24513 110.788 8.81213C111.262 8.37914 111.887 8.16429 112.661 8.16429H114.04V6.58104H112.77C112.128 6.58104 111.611 6.69011 111.216 6.91157C110.821 7.13303 110.531 7.47678 110.34 7.94614H110.034V6.62732H108.348Z" fill="url(#paint0_linear_116_285)"/>
<defs>
<linearGradient id="paint0_linear_116_285" x1="121.012" y1="11.2414" x2="-0.871061" y2="11.4697" gradientUnits="userSpaceOnUse">
<stop stop-color="#859398"/>
<stop offset="0.39918" stop-color="#D1F593"/>
<stop offset="1" stop-color="#859398"/>
</linearGradient>
</defs>
</svg>
